HIERARCHY
ROOT pelvis
{
  OFFSET 0 100 0
  CHANNELS 6 Xposition Yposition Zposition Zrotation Xrotation Yrotation
  JOINT pelvis_right_femur
  {
    OFFSET -10.78128 -3.44521 -0.5502486
    CHANNELS 3 Zrotation Xrotation Yrotation
    JOINT right_femur_tibia
    {
      OFFSET -0.8047443 -44.0398 -0.1307829
      CHANNELS 3 Zrotation Xrotation Yrotation
      JOINT right_tibia_foot
      {
        OFFSET 3.006224 -47.83518 -5
        CHANNELS 3 Zrotation Xrotation Yrotation
        End Site
        {
          OFFSET 0 -5 15
        }
      }
    }
  }
  JOINT pelvis_left_femur
  {
    OFFSET 10.78128 -3.44521 -0.5502486
    CHANNELS 3 Zrotation Xrotation Yrotation
    JOINT left_femur_tibia
    {
      OFFSET 0.8047443 -44.0398 -0.1307829
      CHANNELS 3 Zrotation Xrotation Yrotation
      JOINT left_tibia_foot
      {
        OFFSET -4.370144 -48.10324 -4.275266
        CHANNELS 3 Zrotation Xrotation Yrotation
        End Site
        {
          OFFSET 0 -5 15
        }
      }
    }
  }
  JOINT pelvis_spine1
  {
    OFFSET 0 6.468898 -3.129235
    CHANNELS 3 Zrotation Xrotation Yrotation
    JOINT spine1
    {
      OFFSET 0 23.15396 4.99043
      CHANNELS 3 Zrotation Xrotation Yrotation
      JOINT spine2
      {
        OFFSET 0 20.79997 -5.064912
        CHANNELS 3 Zrotation Xrotation Yrotation
        JOINT neck
        {
          OFFSET 0 14.38658 9.616178
          CHANNELS 3 Zrotation Xrotation Yrotation
          End Site
          {
            OFFSET 0 20 0
          }
        }
      }
      JOINT right_manubrium
      {
        OFFSET -5.722621 16.35077 3.967754
        CHANNELS 3 Zrotation Xrotation Yrotation
        JOINT right_clavicle
        {
          OFFSET -13.16364 1.694482 -4.693211
          CHANNELS 3 Zrotation Xrotation Yrotation
          JOINT right_humerus
          {
            OFFSET -28.5034 -0.3100689 -2.792744
            CHANNELS 3 Zrotation Xrotation Yrotation
            JOINT right_radius
            {
              OFFSET -25.15693 0.02248979 -1.271978
              CHANNELS 3 Zrotation Xrotation Yrotation
              End Site
              {
                OFFSET -15 0 0
              }
            }
          }
        }
      }
      JOINT left_manubrium
      {
        OFFSET 5.722621 16.35077 3.967754
        CHANNELS 3 Zrotation Xrotation Yrotation
        JOINT left_clavicle
        {
          OFFSET 13.16364 1.694482 -4.693211
          CHANNELS 3 Zrotation Xrotation Yrotation
          JOINT left_humerus
          {
            OFFSET 29.39168 -1.063119 -2.237045
            CHANNELS 3 Zrotation Xrotation Yrotation
            JOINT left_radius
            {
              OFFSET 24.59957 -0.9528479 0.9047498
              CHANNELS 3 Zrotation Xrotation Yrotation
              End Site
              {
                OFFSET 15 -0 -0
              }
            }
          }
        }
      }
    }
  }
}
MOTION
Frames: 17
Frame Time: 0.0416666666667
-1511.902 108.3812 2136.226 -14.68383 0.00467316 -93.6615 1.100208 3.187563 -3.089744 -0 41.1226 -0 -10.36142 10.19964 -1.527956 -5.682321 5.055496 -10.41268 -0 17.10514 -0 -2.688842 -14.46358 20.69596 2.20616 -0.8339808 9.269751 -0.5608331 14.03581 -6.181372 1.632524 17.25017 -0.1195871 -1.524695 -18.04694 3.06984 -7.386218 -31.68674 11.43074 95.33265 28.86338 -9.789143 -0 0 26.96349 -18.36248 12.28329 16.40717 -1.725898 -20.93244 -5.716446 -84.10816 8.58286 34.80579 0 0 -33.97384 -0.8503697 8.95242 16.65461
-1517.535 108.5115 2136.217 -13.73381 -0.1360833 -93.20361 0.9081203 -2.475868 -3.895668 -0 36.57829 -0 -10.25301 9.080947 -1.678064 -5.729097 7.819573 -10.02758 -0 15.8163 -0 -2.077684 -15.80777 19.43058 2.225704 -0.5805769 9.1233 -0.4913054 13.63853 -6.339904 1.586056 17.31117 0.111037 -1.390837 -18.2744 3.156554 -7.733041 -31.14605 11.35638 96.17207 29.40244 -10.81932 -0 0 25.80155 -17.8295 11.35013 15.78597 -1.558653 -21.10288 -5.578302 -83.20572 8.424161 33.45334 0 0 -36.02003 -0.4790477 8.854458 16.08736
-1523.108 108.2331 2136.158 -12.4199 -0.3255877 -92.79345 0.6430796 -7.871388 -4.647489 -0 30.19905 -0 -9.899282 7.412307 -1.861733 -5.763056 10.11169 -9.567225 -0 14.75153 -0 -1.436841 -17.14477 18.14016 2.23988 -0.3456504 8.960087 -0.4263449 13.25328 -6.497428 1.540671 17.38314 0.3701824 -1.241947 -18.50744 3.265489 -8.05242 -30.5693 11.29129 97.04951 29.86855 -11.92979 -0 0 24.56539 -17.32454 10.42034 15.16914 -1.371351 -21.30552 -5.474057 -82.32398 8.291019 32.03745 0 0 -38.11547 -0.1050907 8.749316 15.54345
-1528.745 107.5702 2136.042 -10.94102 -0.5326093 -92.45919 0.388504 -12.71615 -5.262635 -0 23.03311 -0 -9.390082 5.794571 -2.049857 -5.816492 12.03367 -9.06404 -0 14.30885 -0 -0.7741168 -18.34115 17.04179 2.245801 -0.1470664 8.782086 -0.3706482 12.90292 -6.648999 1.49882 17.46326 0.6534084 -1.080425 -18.7287 3.396626 -8.320055 -29.97114 11.23982 97.93233 30.23082 -13.09377 -0 0 23.28499 -16.86765 9.545741 14.58283 -1.168999 -21.54809 -5.423137 -81.49075 8.203884 30.59289 0 0 -40.21872 0.2536979 8.639238 15.06478
-1534.56 106.6188 2135.853 -9.471029 -0.7132479 -92.205 0.2716696 -16.80686 -5.635607 -0 16.19155 -0 -8.832673 4.668539 -2.246127 -5.872382 13.68664 -8.531843 -0 14.78248 -0 -0.116704 -19.20485 16.23555 2.240676 -0.0003531939 8.591796 -0.3277697 12.60822 -6.790551 1.46292 17.54855 0.9539714 -0.9105662 -18.92207 3.548717 -8.515544 -29.36862 11.20408 98.78502 30.46622 -14.27804 -0 0 21.99401 -16.47292 8.776058 14.04963 -0.9583997 -21.83578 -5.441277 -80.7286 8.182611 29.15513 0 0 -42.28567 0.5819051 8.527628 14.6876
-1540.642 105.5335 2135.571 -8.142406 -0.8153506 -92.01505 0.4369931 -19.98036 -5.648951 -0 10.65164 -0 -8.325154 4.202111 -2.491291 -5.873753 15.1228 -7.98506 -0 16.38429 -0 0.4328489 -19.52971 15.67929 2.221958 0.08420054 8.39299 -0.2993764 12.38473 -6.918208 1.435049 17.63683 1.26197 -0.7394489 -19.07626 3.718781 -8.625958 -28.78228 11.18342 99.56989 30.56366 -15.43933 -0 0 20.73238 -16.14874 8.152479 13.58815 -0.7492473 -22.16602 -5.536315 -80.0572 8.243985 27.76494 0 0 -44.2576 0.8665856 8.418101 14.43751
-1547.041 104.5067 2135.176 -7.052351 -0.7804244 -91.86968 1.012207 -22.08888 -5.199312 -0 7.114427 -0 -7.94423 4.269996 -2.838983 -5.741221 16.30556 -7.455121 -0 19.27973 -0 0.6997717 -19.13888 15.23737 2.187647 0.1035348 8.191507 -0.2849555 12.24062 -7.027472 1.416637 17.72751 1.563998 -0.5771369 -19.18732 3.901614 -8.648258 -28.23657 11.17472 100.2488 30.52603 -16.52302 -0 0 19.54772 -15.89968 7.702517 13.21344 -0.5546316 -22.52459 -5.705511 -79.49623 8.399516 26.47311 0 0 -46.05201 1.096364 8.313617 14.32668
-1553.751 103.741 2134.654 -6.276746 -0.5524506 -91.76987 2.058794 -23.00756 -4.246541 -0 5.893777 -0 -7.747733 4.529294 -3.311027 -5.401168 17.07858 -6.992579 -0 23.59161 -0 0.5249829 -17.92322 14.78908 2.13694 0.06201421 7.99593 -0.28225 12.17663 -7.112706 1.40827 17.82131 1.843507 -0.4358145 -19.25855 4.089318 -8.589572 -27.75926 11.17362 100.7856 30.36911 -17.46557 -0 0 18.49519 -15.72958 7.438284 12.93813 -0.3902349 -22.88514 -5.935391 -79.068 8.65312 25.34325 0 0 -47.56166 1.26019 8.216355 14.35406
-1560.699 103.4121 2134.013 -5.873152 -0.1048113 -91.7571 3.509318 -22.66688 -2.875881 -0 6.817287 -0 -7.781194 4.567496 -3.854288 -4.826682 17.15645 -6.648579 -0 29.33615 -0 -0.1077183 -15.88605 14.33167 2.071127 -0.03034345 7.817855 -0.2883481 12.18787 -7.16725 1.409716 17.91892 2.08194 -0.3279561 -19.29784 4.27104 -8.465133 -27.37971 11.1763 101.1489 30.11708 -18.20061 -0 0 17.63525 -15.64454 7.358641 12.77346 -0.2720781 -23.21283 -6.204264 -78.79842 8.998602 24.45074 0 0 -48.66444 1.346697 8.128524 14.50813
-1567.747 103.6257 2133.28 -5.86285 0.5157446 -91.90968 5.127605 -21.08246 -1.325525 -0 9.186272 -0 -8.062446 4.069892 -4.338152 -4.078968 16.17053 -6.443209 -0 36.29304 -0 -1.010002 -13.20284 13.98942 1.99432 -0.1609211 7.671379 -0.3009638 12.26704 -7.18425 1.420166 18.01911 2.260577 -0.2641009 -19.31339 4.43332 -8.294506 -27.12635 11.18101 101.3151 29.79617 -18.66727 -0 0 17.0292 -15.65429 7.453956 12.72977 -0.2134287 -23.47111 -6.486432 -78.71566 9.417596 23.87642 0 0 -49.24204 1.345004 8.053691 14.77087
-1574.718 104.3818 2132.506 -6.204961 1.158142 -92.30469 6.549433 -18.35537 0.07934495 -0 11.91351 -0 -8.533601 2.934213 -4.621738 -3.310681 13.79921 -6.346275 -0 43.86893 -0 -1.86839 -10.25887 13.90659 1.91354 -0.3176514 7.571567 -0.3193045 12.40729 -7.158035 1.438608 18.11717 2.362761 -0.2509971 -19.30998 4.561334 -8.09719 -27.02361 11.1887 101.2693 29.42863 -18.81848 -0 0 16.73329 -15.77082 7.711325 12.81569 -0.2219232 -23.62937 -6.756654 -78.84634 9.878991 23.6956 0 0 -49.20179 1.247136 7.997824 15.12117
-1581.442 105.565 2131.737 -6.793883 1.600655 -92.96167 7.426133 -14.65034 1.080385 -0 13.90351 -0 -9.029611 1.278282 -4.653693 -2.692151 9.950479 -6.292494 -0 51.05366 -0 -2.417484 -7.584516 14.1271 1.837882 -0.4911765 7.532099 -0.3441363 12.60378 -7.085671 1.46415 18.20439 2.376087 -0.2906555 -19.28703 4.640988 -7.888701 -27.08904 11.20246 101.0073 29.02942 -18.62732 -0 0 16.79221 -16.00443 8.118343 13.03649 -0.297852 -23.66884 -6.993576 -79.20969 10.34082 23.96418 0 0 -48.49515 1.051343 7.96934 15.53673
-1587.8 106.9698 2131.008 -7.490317 1.669921 -93.81088 7.607136 -10.19753 1.62174 -0 14.51832 -0 -9.33814 -0.6598494 -4.506595 -2.286402 4.881797 -6.211575 -0 56.54582 -0 -2.569001 -5.659161 14.5879 1.776873 -0.6754864 7.562609 -0.3770742 12.85343 -6.96825 1.496133 18.26907 2.294145 -0.3804194 -19.23896 4.66136 -7.678042 -27.33092 11.22628 100.5345 28.60653 -18.09049 -0 0 17.23305 -16.3587 8.664444 13.39178 -0.4340779 -23.58521 -7.181596 -79.81094 10.75499 24.70541 0 0 -47.12825 0.7649424 7.977865 15.9945
-1593.759 108.3511 2130.331 -8.153119 1.377884 -94.72083 7.233352 -5.335255 1.845572 -0 13.80779 -0 -9.336966 -2.675026 -4.300477 -1.972677 -0.8467663 -6.033095 -0 59.05198 -0 -2.40398 -4.681963 15.20983 1.738473 -0.867117 7.66645 -0.4194735 13.15318 -6.811514 1.533971 18.29869 2.117586 -0.5137697 -19.15743 4.616848 -7.4672 -27.74635 11.26355 99.86682 28.16428 -17.22922 -0 0 18.05998 -16.82631 9.339527 13.87343 -0.6174767 -23.3879 -7.311285 -80.63537 11.07463 25.90043 0 0 -45.16325 0.4053104 8.031902 16.47059
-1599.362 109.4769 2129.709 -8.648268 0.9519453 -95.56959 6.656843 -0.5170114 1.948601 -0 12.34015 -0 -9.085849 -4.707906 -4.095097 -1.498037 -6.560262 -5.679908 -0 57.69458 -0 -2.059047 -4.474414 15.95432 1.727287 -1.063413 7.8394 -0.4714115 13.49727 -6.625617 1.576812 18.28294 1.854563 -0.6814047 -19.03468 4.508544 -7.25296 -28.3197 11.31584 99.03093 27.70803 -16.0884 -0 0 19.24936 -17.38701 10.13011 14.4639 -0.8313571 -23.09695 -7.378929 -81.6448 11.26275 27.48481 0 0 -42.71284 -0.001578622 8.135998 16.94057
-1604.708 110.1699 2129.149 -8.86259 0.7033954 -96.30498 6.234237 3.805946 2.038612 -0 10.80472 -0 -8.777075 -6.829035 -3.862932 -0.6420856 -11.66786 -5.104522 -0 52.39515 -0 -1.621981 -4.60325 16.78732 1.743453 -1.260567 8.069515 -0.5311247 13.87471 -6.424008 1.623177 18.21692 1.520734 -0.8722144 -18.86714 4.34463 -7.030695 -29.02139 11.38213 98.06582 27.24847 -14.73487 -0 0 20.74537 -18.00829 11.01389 15.13536 -1.058178 -22.73906 -7.385844 -82.77787 11.30053 29.35165 0 0 -39.9313 -0.4248109 8.288099 17.38091
-1609.918 110.3378 2128.663 -8.745762 0.8256635 -96.95296 6.129714 7.376108 2.109007 -0 9.69573 -0 -8.587422 -9.0947 -3.555046 0.6051771 -15.77747 -4.365895 -0 44.03739 -0 -1.124299 -4.647262 17.62301 1.78256 -1.452197 8.338204 -0.5950643 14.2676 -6.221608 1.670789 18.10339 1.138741 -1.074018 -18.65836 4.139703 -6.799013 -29.80775 11.4586 97.02379 26.80397 -13.25441 -0 0 22.45767 -18.64823 11.95463 15.84999 -1.282005 -22.34397 -7.337899 -83.95516 11.19278 31.36201 0 0 -37.00367 -0.833542 8.477911 17.77165
